<svg xmlns="http://www.w3.org/2000/svg" xmlns:xlink="http://www.w3.org/1999/xlink" viewBox="0 0 288 310">
  <defs>
    <style>
      .cls-1 {
        clip-path: url(#clip-facebook);
      }

      .cls-2 {
        fill: #fff;
      }
    </style>
    <clipPath id="clip-facebook">
      <rect width="288" height="310"/>
    </clipPath>
  </defs>
  <g id="facebook" class="cls-1">
    <rect class="cls-2" width="288" height="310"/>
    <path id="Path_1" data-name="Path 1" class="cls-2" d="M504.773,239.154V341.43H458.341V239.322H436.154V204.887c1.606-.086,3.292-.245,4.978-.252,4.35-.018,8.7.063,13.049.046,3.76-.015,4.192-.453,4.2-4.149q.011-12.323-.026-24.648c-.028-15.639,6.395-27.584,20.789-34.226a43.627,43.627,0,0,1,15.613-3.71c14.084-.754,28.209-.707,42.314-1.1,2.38-.066,3.157.56,3.128,3.029-.129,10.722-.055,21.445-.055,32.561-1.315.071-2.52.188-3.726.193-6.379.019-12.759-.028-19.138.022-8.571.067-12.356,3.9-12.378,12.471-.014,5.413.167,10.831-.011,16.237-.088,2.654.876,3.208,3.344,3.173,9.567-.136,19.138-.055,28.708-.055h3.589c-1.473,11.7-2.9,23.059-4.367,34.675Z" transform="translate(-345.339 -85.381)"/>
  </g>
</svg>
