<svg xmlns="http://www.w3.org/2000/svg" xmlns:xlink="http://www.w3.org/1999/xlink" viewBox="0 0 288 286">
  <defs>
    <style>
      .cls-1 {
        clip-path: url(#clip-g_);
      }

      .cls-2 {
        fill: #fff;
      }
    </style>
    <clipPath id="clip-g_">
      <rect width="288" height="286"/>
    </clipPath>
  </defs>
  <g id="g_" data-name="g+" class="cls-1">
    <rect class="cls-2" width="288" height="286"/>
    <path id="Path_2" data-name="Path 2" class="cls-2" d="M110.115,132.422h11.1c2.576.312,5.163.562,7.729.947,20.538,3.082,38.274,12.212,54.257,25.155L152.65,188.607c-1.716-1.046-3.811-2.331-5.914-3.6-15.519-9.389-32.04-11.941-49.5-6.83-16.44,4.811-28.768,14.968-36.961,29.949a60.015,60.015,0,0,0-6.453,42.093,61.919,61.919,0,0,0,13.049,27.1A58.693,58.693,0,0,0,93.7,296.248a66.646,66.646,0,0,0,42.19.549c13.567-4.3,24.42-12.184,30.885-25.27a34.611,34.611,0,0,0,3.768-12.2h-55.4V218.665c1.572,0,3,0,4.422,0q43.872-.054,87.744-.105c.821,0,1.645.076,2.464.046a2.877,2.877,0,0,1,3.286,2.875c.393,3.191.853,6.375,1.133,9.576,1.54,17.6-.311,34.8-7.478,51.056-13.752,31.2-36.553,51.7-70.6,58.5a107.127,107.127,0,0,1-42.038.411c-25.9-5.1-46.872-18.534-62.868-39.247C11.655,276.464,6.049,247.545,11.825,216.4A99.543,99.543,0,0,1,36,167.734c16.043-18.013,36.354-28.412,59.726-33.218C100.462,133.541,105.314,133.106,110.115,132.422Z" transform="translate(31.818 -94.668)"/>
  </g>
</svg>
