<svg xmlns="http://www.w3.org/2000/svg" xmlns:xlink="http://www.w3.org/1999/xlink" viewBox="0 0 135.667 63.925">
  <defs>
    <style>
      .cls-1 {
        fill: none;
      }

      .cls-2 {
        clip-path: url(#clip-Fruit-mania-logo);
      }

      .cls-3 {
        fill: #6b1802;
      }

      .cls-4 {
        fill: #fc4329;
      }

      .cls-5 {
        fill: #fe2a10;
      }

      .cls-6 {
        fill: #3ca42a;
      }

      .cls-7 {
        fill: #247524;
      }

      .cls-8 {
        fill: #fed896;
      }

      .cls-9 {
        fill: #fed697;
      }

      .cls-10 {
        fill: #78b71c;
      }

      .cls-11 {
        fill: #5c7b16;
      }

      .cls-12 {
        fill: #fdd206;
      }

      .cls-13 {
        fill: #fae707;
      }

      .cls-14 {
        clip-path: url(#clip-path);
      }

      .cls-15 {
        fill: #faea08;
      }

      .cls-16 {
        fill: #869d14;
      }

      .cls-17 {
        fill: #f51d00;
      }

      .cls-18 {
        fill: #fd3b20;
      }

      .cls-19 {
        fill: #fc6337;
      }

      .cls-20 {
        fill: #942c31;
      }

      .cls-21 {
        fill: #0b0909;
      }

      .cls-22 {
        fill: #1c5c1d;
      }

      .cls-23 {
        fill: #a77954;
      }

      .cls-24 {
        fill: #fe5a10;
      }

      .cls-25 {
        fill: #f72d00;
      }

      .cls-26 {
        fill: #ffcd00;
      }

      .cls-27 {
        fill: #fd6a26;
      }

      .cls-28 {
        fill: #fd4418;
      }

      .cls-29 {
        fill: #5d5968;
      }

      .cls-30 {
        fill: #1e245d;
      }

      .cls-31 {
        fill: #67b821;
      }

      .cls-32 {
        fill: #4e6915;
      }

      .cls-33 {
        fill: #d01057;
      }

      .cls-34 {
        fill: #84ba38;
      }

      .cls-35 {
        fill: #fffae4;
      }

      .cls-36 {
        fill: #fff;
      }

      .cls-37 {
        fill: #120c10;
      }
    </style>
    <clipPath id="clip-path">
      <path id="Path_20" data-name="Path 20" class="cls-1" d="M352.436,62.552c-1.593-2.021-3.487-1.75-4.429-1.073l0,0-.031.027-.034.025,0,0c-.944.809-1.6,2.544,0,4.565s3.42,1.532,4.295.9l0,0,.031-.027.034-.024,0,0A3.019,3.019,0,0,0,352.436,62.552Z"/>
    </clipPath>
    <clipPath id="clip-Fruit-mania-logo">
      <rect width="135.667" height="63.925"/>
    </clipPath>
  </defs>
  <g id="Fruit-mania-logo" class="cls-2">
    <rect class="cls-36" width="135.667" height="63.925"/>
    <g id="Group_373" data-name="Group 373" transform="translate(-313.667 -13.741)">
      <g id="Group_1" data-name="Group 1">
        <path id="Path_1" data-name="Path 1" class="cls-3" d="M394.989,31.7l8.709.165-.073,3.878-3.989-.076-.031,1.64,3.922.074-.07,3.679-3.922-.074-.106,5.584-4.72-.089Zm2.546,13.061.1-5.385,4.21.08.01-.532-4.21-.08.091-4.787,4.432.084.01-.532-5.008-.094-.213,11.235Z"/>
        <path id="Path_2" data-name="Path 2" class="cls-3" d="M404.917,31.892l5.1.1a8.771,8.771,0,0,1,2.619.427,6.118,6.118,0,0,1,2.073,1.147,5.091,5.091,0,0,1,1.351,1.833,5.817,5.817,0,0,1,.451,2.48,5.093,5.093,0,0,1-.345,1.878,5.765,5.765,0,0,1-.712,1.272,4.768,4.768,0,0,1-1.016.956l2.678,4.928-5.54-.1-2.145-3.787-.071,3.745-4.72-.089Zm4.427,9.727a7.928,7.928,0,0,0,1.687-.146l2.038,3.586.687.013-2.145-3.765a4.158,4.158,0,0,0,1.93-1.26,3.493,3.493,0,0,0,.752-2.258,3.669,3.669,0,0,0-.344-1.714,3.606,3.606,0,0,0-1.007-1.249,4.618,4.618,0,0,0-1.526-.783,6.956,6.956,0,0,0-1.923-.291l-2.394-.045-.212,11.235.576.011.064-3.369Zm-1.807-.566.129-6.8,1.817.035a5.033,5.033,0,0,1,3.141.946,3.012,3.012,0,0,1,1.093,2.548,2.98,2.98,0,0,1-1.189,2.493,5.076,5.076,0,0,1-3.174.816Zm1.962-1.8.244,0a2.592,2.592,0,0,0,1.437-.349,1.653,1.653,0,0,0,.047-2.527,2.588,2.588,0,0,0-1.422-.4l-.243,0Z"/>
        <path id="Path_3" data-name="Path 3" class="cls-3" d="M423.6,47.409a8.422,8.422,0,0,1-2.52-.4,5.18,5.18,0,0,1-1.907-1.1,4.661,4.661,0,0,1-1.2-1.818,6.848,6.848,0,0,1-.384-2.557l.178-9.4,4.72.089-.174,9.2a1.884,1.884,0,0,0,.3,1.192,1.613,1.613,0,0,0,2.149.04,1.891,1.891,0,0,0,.344-1.179l.174-9.2,4.742.09-.178,9.4a6.855,6.855,0,0,1-.48,2.54,4.612,4.612,0,0,1-1.275,1.772,5.3,5.3,0,0,1-1.959,1.027A8.442,8.442,0,0,1,423.6,47.409Zm.05-2.66q-3.324-.063-3.262-3.32l.141-7.468-.576-.011-.141,7.468a3.8,3.8,0,0,0,.954,2.867,4.753,4.753,0,0,0,5.795.109,3.778,3.778,0,0,0,1.073-2.828l.142-7.468-.6-.011-.141,7.468Q426.973,44.812,423.649,44.749Z"/>
        <path id="Path_4" data-name="Path 4" class="cls-3" d="M431.509,32.4l5.008.1-.28,14.781-5.008-.1Zm2.546,13.061.213-11.235-.577-.011-.212,11.235Z"/>
        <path id="Path_5" data-name="Path 5" class="cls-3" d="M439.945,36.434l-2.726-.051.073-3.878,10.327.195-.073,3.878-2.726-.051-.206,10.9-4.876-.093Zm2.553,9.182.2-10.7,3.169.06.01-.532-6.914-.131-.01.532,3.169.06-.2,10.7Z"/>
      </g>
      <g id="Group_20" data-name="Group 20">
        <g id="Group_4" data-name="Group 4">
          <g id="Group_2" data-name="Group 2">
            <path id="Path_6" data-name="Path 6" class="cls-4" d="M363.133,63.351c.064-1.64-1.346-2.016-2.058-2.4s-1.792-1.368-3.134-.425c-1.3.914-1.177,4.759.149,5.725.024.018.048.034.072.049a.8.8,0,0,0,.08.034C359.774,66.921,363.071,64.938,363.133,63.351Z"/>
          </g>
          <g id="Group_3" data-name="Group 3">
            <path id="Path_7" data-name="Path 7" class="cls-5" d="M358.875,66.942a2.258,2.258,0,0,1-.814-.139c-.039-.015-.076-.031-.111-.047a.643.643,0,0,1-.058-.031c-.033-.021-.066-.044-.1-.067-.955-.7-1.281-2.341-1.271-3.538.006-.671.127-2.308,1.128-3.01a2.772,2.772,0,0,1,3.351.206c.113.07.218.135.315.189s.209.1.328.161a2.773,2.773,0,0,1,1.992,2.7h0c-.047,1.222-1.356,2.211-1.917,2.58A5.652,5.652,0,0,1,358.875,66.942Zm-.471-1.09.022.009a3.671,3.671,0,0,0,2.739-.755,2.888,2.888,0,0,0,1.463-1.775c.038-.987-.562-1.348-1.414-1.751-.138-.066-.267-.127-.38-.188s-.235-.137-.365-.218c-.8-.5-1.429-.805-2.238-.237a2.89,2.89,0,0,0-.7,2.192,3.672,3.672,0,0,0,.854,2.711Zm4.729-2.5h0Z"/>
          </g>
        </g>
        <g id="Group_7" data-name="Group 7">
          <g id="Group_5" data-name="Group 5">
            <path id="Path_8" data-name="Path 8" class="cls-6" d="M363.221,60.938a2.247,2.247,0,0,0-1.131-.642,2.119,2.119,0,0,0,.245-1.633,1.83,1.83,0,0,0-1.254,1.087,2.243,2.243,0,0,0-1.162-.61,1.846,1.846,0,0,0,.741,1.763,3.02,3.02,0,0,0,.325.2,2.964,2.964,0,0,0,.341.16A1.837,1.837,0,0,0,363.221,60.938Z"/>
          </g>
          <g id="Group_6" data-name="Group 6">
            <path id="Path_9" data-name="Path 9" class="cls-7" d="M361.995,61.9a2.2,2.2,0,0,1-.863-.168,3.484,3.484,0,0,1-.388-.184,3.412,3.412,0,0,1-.374-.233,2.368,2.368,0,0,1-.952-2.239.5.5,0,0,1,.6-.432,2.789,2.789,0,0,1,.923.355,2.37,2.37,0,0,1,1.262-.825.5.5,0,0,1,.625.371A2.764,2.764,0,0,1,362.781,60a2.81,2.81,0,0,1,.8.584.506.506,0,0,1-.039.737A2.378,2.378,0,0,1,361.995,61.9Zm-1.487-1.975a1.278,1.278,0,0,0,.431.555l.022.016a2.4,2.4,0,0,0,.266.165,2.458,2.458,0,0,0,.278.132l.031.013a1.293,1.293,0,0,0,.7.063,1.581,1.581,0,0,0-.257-.08.505.505,0,0,1-.314-.773,1.412,1.412,0,0,0,.2-.545,1.282,1.282,0,0,0-.321.466.506.506,0,0,1-.828.168A1.6,1.6,0,0,0,360.508,59.926Z"/>
          </g>
        </g>
        <g id="Group_9" data-name="Group 9">
          <g id="Group_8" data-name="Group 8">
            <path id="Path_10" data-name="Path 10" class="cls-8" d="M360.193,62.537s.732-.373.335-.6S360.193,62.537,360.193,62.537Z"/>
          </g>
        </g>
        <g id="Group_11" data-name="Group 11">
          <g id="Group_10" data-name="Group 10">
            <path id="Path_11" data-name="Path 11" class="cls-8" d="M358.243,61.475s.732-.373.335-.6S358.243,61.475,358.243,61.475Z"/>
          </g>
        </g>
        <g id="Group_13" data-name="Group 13">
          <g id="Group_12" data-name="Group 12">
            <path id="Path_12" data-name="Path 12" class="cls-9" d="M362,63.519s.732-.372.335-.6S362,63.519,362,63.519Z"/>
          </g>
        </g>
        <g id="Group_15" data-name="Group 15">
          <g id="Group_14" data-name="Group 14">
            <path id="Path_13" data-name="Path 13" class="cls-8" d="M360.376,64.406s.732-.372.335-.595S360.376,64.406,360.376,64.406Z"/>
          </g>
        </g>
        <g id="Group_17" data-name="Group 17">
          <g id="Group_16" data-name="Group 16">
            <path id="Path_14" data-name="Path 14" class="cls-8" d="M358.523,63.4s.732-.372.335-.6S358.523,63.4,358.523,63.4Z"/>
          </g>
        </g>
        <g id="Group_19" data-name="Group 19">
          <g id="Group_18" data-name="Group 18">
            <path id="Path_15" data-name="Path 15" class="cls-8" d="M358.649,65.488s.732-.372.335-.6S358.649,65.488,358.649,65.488Z"/>
          </g>
        </g>
      </g>
      <g id="Group_45" data-name="Group 45">
        <g id="Group_23" data-name="Group 23">
          <g id="Group_21" data-name="Group 21">
            <path id="Path_16" data-name="Path 16" class="cls-10" d="M344.841,62.116a4.342,4.342,0,0,1,2.786.5c.865-.651,1.663-1.311,1.663-1.311s-.769-.742.139-2.468c-.325-.3-1.259.493-1.3.823-.256-.442-.612-.471-.655-2.173a1.907,1.907,0,0,0-.774,1.656,3.507,3.507,0,0,1-1.429-1.39s-.486.988.676,2.248a2.351,2.351,0,0,0-1.7.811,2.059,2.059,0,0,1,1.987.422A1.979,1.979,0,0,0,344.841,62.116Z"/>
          </g>
          <g id="Group_22" data-name="Group 22">
            <path id="Path_17" data-name="Path 17" class="cls-11" d="M347.6,63.1a.47.47,0,0,1-.276-.107,3.765,3.765,0,0,0-2.415-.4.482.482,0,0,1-.463-.752,2.631,2.631,0,0,1,.637-.65,1.041,1.041,0,0,0-.635.062.483.483,0,0,1-.557-.763,2.667,2.667,0,0,1,1.212-.811,2.3,2.3,0,0,1-.262-2.138.482.482,0,0,1,.439-.269.477.477,0,0,1,.431.28,2.375,2.375,0,0,0,.629.757,2.165,2.165,0,0,1,.844-1.2.481.481,0,0,1,.775.37,3.732,3.732,0,0,0,.2,1.343,2.389,2.389,0,0,1,.7-.453.826.826,0,0,1,.895.116.481.481,0,0,1,.1.58c-.705,1.342-.239,1.887-.219,1.909a.463.463,0,0,1,.141.36.473.473,0,0,1-.18.347c-.008.007-.817.674-1.68,1.324A.479.479,0,0,1,347.6,63.1Zm-1.126-1.444a3.433,3.433,0,0,1,1.136.372c.418-.32.8-.627,1.057-.833a2.309,2.309,0,0,1-.121-1.284.482.482,0,0,1-.83-.006,1.79,1.79,0,0,0-.132-.186,2.172,2.172,0,0,1-.387-.7c-.005.052-.009.107-.014.164a.482.482,0,0,1-.718.383,5.111,5.111,0,0,1-.5-.325,3.053,3.053,0,0,0,.339.436.483.483,0,0,1-.283.8l-.06.008a2.967,2.967,0,0,1,.592.386.481.481,0,0,1-.079.781Z"/>
          </g>
        </g>
        <g id="Group_26" data-name="Group 26">
          <g id="Group_24" data-name="Group 24">
            <path id="Path_18" data-name="Path 18" class="cls-12" d="M352.4,62.578c-1.593-2.022-3.421-1.8-4.429-1.073v0s.014-.01,0,0,0,0,0,0v0c-1.009.861-1.6,2.545,0,4.566s3.354,1.582,4.3.9v0s-.014.01,0,0,0,0,0,0v0A3.018,3.018,0,0,0,352.4,62.578Z"/>
          </g>
          <g id="Group_25" data-name="Group 25">
            <path id="Path_19" data-name="Path 19" class="cls-13" d="M350.389,67.964a3.8,3.8,0,0,1-2.756-1.627c-1.609-2.042-1.186-3.821-.245-4.86l-.015-.018.035-.031-.021-.032.318-.229.324-.286.026.033h0l.018.022c1.3-.705,3.149-.546,4.664,1.377h0A3.453,3.453,0,0,1,352.845,67l.021.027-.022.02.019.027-.333.24-.306.259-.021-.024-.022.016-.016-.021A3.279,3.279,0,0,1,350.389,67.964Zm-2.148-6.121c-.882.761-1.324,2.2.066,3.962,1.612,2.045,3.211,1.171,3.69.832.236-.209,1.738-1.675.069-3.794h0C350.678,61.082,349.143,61.2,348.241,61.843Z"/>
          </g>
        </g>
        <g id="Group_44" data-name="Group 44">
          <g id="Group_43" data-name="Group 43" class="cls-14">
            <g id="Group_28" data-name="Group 28">
              <g id="Group_27" data-name="Group 27">
                <rect id="Rectangle_1" data-name="Rectangle 1" class="cls-15" width="7.076" height="0.217" transform="translate(347.387 67.687) rotate(-83.236)"/>
              </g>
            </g>
            <g id="Group_30" data-name="Group 30">
              <g id="Group_29" data-name="Group 29">
                <rect id="Rectangle_2" data-name="Rectangle 2" class="cls-15" width="7.076" height="0.217" transform="translate(349.07 67.372) rotate(-83.236)"/>
              </g>
            </g>
            <g id="Group_32" data-name="Group 32">
              <g id="Group_31" data-name="Group 31">
                <rect id="Rectangle_3" data-name="Rectangle 3" class="cls-15" width="7.076" height="0.217" transform="matrix(0.118, -0.993, 0.993, 0.118, 350.611, 67.812)"/>
              </g>
            </g>
            <g id="Group_34" data-name="Group 34">
              <g id="Group_33" data-name="Group 33">
                <rect id="Rectangle_4" data-name="Rectangle 4" class="cls-15" width="7.076" height="0.217" transform="translate(352.105 68.658) rotate(-83.236)"/>
              </g>
            </g>
            <g id="Group_36" data-name="Group 36">
              <g id="Group_35" data-name="Group 35">
                <rect id="Rectangle_5" data-name="Rectangle 5" class="cls-15" width="0.217" height="7.076" transform="translate(346.649 61.267) rotate(-83.235)"/>
              </g>
            </g>
            <g id="Group_38" data-name="Group 38">
              <g id="Group_37" data-name="Group 37">
                <rect id="Rectangle_6" data-name="Rectangle 6" class="cls-15" width="0.217" height="7.076" transform="translate(346.513 62.844) rotate(-83.236)"/>
              </g>
            </g>
            <g id="Group_40" data-name="Group 40">
              <g id="Group_39" data-name="Group 39">
                <rect id="Rectangle_7" data-name="Rectangle 7" class="cls-15" width="0.217" height="7.076" transform="translate(347.087 64.506) rotate(-83.236)"/>
              </g>
            </g>
            <g id="Group_42" data-name="Group 42">
              <g id="Group_41" data-name="Group 41">
                <rect id="Rectangle_8" data-name="Rectangle 8" class="cls-15" width="0.217" height="7.076" transform="translate(346.996 66.141) rotate(-83.236)"/>
              </g>
            </g>
          </g>
        </g>
      </g>
      <g id="Group_48" data-name="Group 48">
        <g id="Group_47" data-name="Group 47">
          <g id="Group_46" data-name="Group 46">
            <path id="Path_21" data-name="Path 21" class="cls-3" d="M357.427,74.8c0-.067-.018-.091-.041-.105-2.452-1.479-4.923-2.927-7.35-4.446-1.9-1.189-3.777-2.423-5.612-3.711a71.613,71.613,0,0,1-12.644-10.97,32.9,32.9,0,0,1-6.254-9.8,19.476,19.476,0,0,1-1.3-9.506,22.168,22.168,0,0,1,2.863-8.212A17.533,17.533,0,0,1,347.383,20a12.243,12.243,0,0,1,8.106,7.029,13.57,13.57,0,0,1,.987,4.314c.028-.185.044-.367.061-.549a12.934,12.934,0,0,0-1.608-7.914,13.844,13.844,0,0,0-7.287-5.918,22.563,22.563,0,0,0-13.484-.762c-8.885,2.061-13.94,8.691-15.6,16.427-.168.781-.237,1.584-.352,2.377v1.949a1.8,1.8,0,0,1,.081.325,20.911,20.911,0,0,0,2.336,8.03,38.146,38.146,0,0,0,7.429,9.768A85.431,85.431,0,0,0,342.377,66.2c2.332,1.486,4.683,2.948,7.094,4.3.149.084,0,.01.374.208l.013.006.364.206a.385.385,0,0,0,.066.042l.216.117.068.038h0q3.266,1.762,6.528,3.533C357.206,74.709,357.318,74.753,357.427,74.8Z"/>
          </g>
        </g>
      </g>
      <g id="Group_51" data-name="Group 51">
        <g id="Group_50" data-name="Group 50">
          <g id="Group_49" data-name="Group 49">
            <path id="Path_22" data-name="Path 22" class="cls-3" d="M356.225,71.2c0-.057.015-.076.034-.088,2.073-1.251,4.163-2.476,6.215-3.76,1.608-1.006,3.2-2.049,4.746-3.139a60.561,60.561,0,0,0,10.692-9.276,27.824,27.824,0,0,0,5.289-8.287,16.471,16.471,0,0,0,1.1-8.038,18.769,18.769,0,0,0-2.421-6.945,14.829,14.829,0,0,0-17.162-6.814,10.348,10.348,0,0,0-6.854,5.944,11.46,11.46,0,0,0-.836,3.648c-.023-.156-.037-.31-.051-.464a10.944,10.944,0,0,1,1.36-6.693,11.7,11.7,0,0,1,6.162-5,19.082,19.082,0,0,1,11.4-.645c7.513,1.744,11.788,7.35,13.191,13.892.142.661.2,1.34.3,2.01v1.649a1.568,1.568,0,0,0-.068.274,17.675,17.675,0,0,1-1.976,6.79,32.231,32.231,0,0,1-6.282,8.261,72.169,72.169,0,0,1-12.113,9.41c-1.972,1.257-3.96,2.493-6,3.639-.126.071,0,.008-.316.176l-.011.005-.308.174a.317.317,0,0,1-.056.036l-.183.1-.057.032h0q-2.763,1.49-5.521,2.988C356.411,71.122,356.317,71.159,356.225,71.2Z"/>
          </g>
        </g>
      </g>
      <g id="Group_59" data-name="Group 59">
        <g id="Group_53" data-name="Group 53">
          <g id="Group_52" data-name="Group 52">
            <path id="Path_23" data-name="Path 23" class="cls-16" d="M341.239,37.465s-.9-1.965-4.059-2.843l-.23.878a4.549,4.549,0,0,1,4.064,2.3"/>
          </g>
        </g>
        <g id="Group_58" data-name="Group 58">
          <g id="Group_55" data-name="Group 55">
            <g id="Group_54" data-name="Group 54">
              <circle id="Ellipse_1" data-name="Ellipse 1" class="cls-17" cx="3.043" cy="3.043" r="3.043" transform="translate(337.17 37.966) rotate(-26.011)"/>
            </g>
          </g>
          <g id="Group_57" data-name="Group 57">
            <g id="Group_56" data-name="Group 56">
              <path id="Path_24" data-name="Path 24" class="cls-16" d="M341.2,42.793h-.052a3.427,3.427,0,0,1,.135-6.852h.051a3.427,3.427,0,0,1,3.333,3.519h0a3.429,3.429,0,0,1-3.467,3.333Zm.074-6.086a2.66,2.66,0,1,0,2.627,2.732h0a2.661,2.661,0,0,0-2.587-2.732Z"/>
            </g>
          </g>
        </g>
      </g>
      <g id="Group_91" data-name="Group 91">
        <g id="Group_62" data-name="Group 62">
          <g id="Group_60" data-name="Group 60">
            <path id="Path_25" data-name="Path 25" class="cls-6" d="M350.32,36.759a3.638,3.638,0,0,0-.04.57,3.985,3.985,0,1,0,7.97.067,3.676,3.676,0,0,0-.035-.57"/>
          </g>
          <g id="Group_61" data-name="Group 61">
            <path id="Path_26" data-name="Path 26" class="cls-7" d="M354.266,41.86h-.039a4.5,4.5,0,0,1-4.459-4.534,4.35,4.35,0,0,1,.049-.659.512.512,0,0,1,1.006.186,3.511,3.511,0,0,0,3.413,3.984h.03a3.477,3.477,0,0,0,3.472-3.445,3.15,3.15,0,0,0-.027-.48.512.512,0,1,1,1.009-.17,4.5,4.5,0,0,1-4.454,5.119Z"/>
          </g>
        </g>
        <g id="Group_65" data-name="Group 65">
          <g id="Group_63" data-name="Group 63">
            <path id="Path_27" data-name="Path 27" class="cls-18" d="M350.706,36.763a2.8,2.8,0,0,0-.047.493,3.613,3.613,0,0,0,7.226.067,2.859,2.859,0,0,0-.034-.5"/>
          </g>
          <g id="Group_64" data-name="Group 64">
            <path id="Path_28" data-name="Path 28" class="cls-19" d="M354.273,41.4h-.037a4.114,4.114,0,0,1-4.088-4.151,3.118,3.118,0,0,1,.061-.612.512.512,0,0,1,.994.245,2.319,2.319,0,0,0-.032.376,3.092,3.092,0,0,0,3.074,3.119,3.107,3.107,0,0,0,2.2-.884,3.064,3.064,0,0,0,.925-2.178,2.415,2.415,0,0,0-.021-.381.516.516,0,0,1,.39-.609.508.508,0,0,1,.608.38,3.523,3.523,0,0,1,.047.619,4.114,4.114,0,0,1-4.124,4.077Z"/>
          </g>
        </g>
        <g id="Group_90" data-name="Group 90">
          <g id="Group_67" data-name="Group 67">
            <g id="Group_66" data-name="Group 66">
              <path id="Path_29" data-name="Path 29" class="cls-20" d="M351.623,37.072s-.314.45-.01.457S351.623,37.072,351.623,37.072Z"/>
            </g>
          </g>
          <g id="Group_69" data-name="Group 69">
            <g id="Group_68" data-name="Group 68">
              <path id="Path_30" data-name="Path 30" class="cls-20" d="M353.025,37.084s-.314.45-.01.457S353.025,37.084,353.025,37.084Z"/>
            </g>
          </g>
          <g id="Group_71" data-name="Group 71">
            <g id="Group_70" data-name="Group 70">
              <path id="Path_31" data-name="Path 31" class="cls-20" d="M354.428,37.1s-.315.45-.01.457S354.428,37.1,354.428,37.1Z"/>
            </g>
          </g>
          <g id="Group_73" data-name="Group 73">
            <g id="Group_72" data-name="Group 72">
              <path id="Path_32" data-name="Path 32" class="cls-20" d="M355.83,37.108s-.314.45-.01.457S355.83,37.108,355.83,37.108Z"/>
            </g>
          </g>
          <g id="Group_75" data-name="Group 75">
            <g id="Group_74" data-name="Group 74">
              <path id="Path_33" data-name="Path 33" class="cls-20" d="M357.233,37.12s-.315.45-.01.456S357.233,37.12,357.233,37.12Z"/>
            </g>
          </g>
          <g id="Group_77" data-name="Group 77">
            <g id="Group_76" data-name="Group 76">
              <path id="Path_34" data-name="Path 34" class="cls-20" d="M356.521,38.416s-.315.45-.01.457S356.521,38.416,356.521,38.416Z"/>
            </g>
          </g>
          <g id="Group_79" data-name="Group 79">
            <g id="Group_78" data-name="Group 78">
              <path id="Path_35" data-name="Path 35" class="cls-20" d="M355,38.4s-.314.45-.01.457S355,38.4,355,38.4Z"/>
            </g>
          </g>
          <g id="Group_81" data-name="Group 81">
            <g id="Group_80" data-name="Group 80">
              <path id="Path_36" data-name="Path 36" class="cls-20" d="M353.482,38.39s-.315.45-.01.457S353.482,38.39,353.482,38.39Z"/>
            </g>
          </g>
          <g id="Group_83" data-name="Group 83">
            <g id="Group_82" data-name="Group 82">
              <path id="Path_37" data-name="Path 37" class="cls-20" d="M351.963,38.365s-.315.45-.01.457S351.963,38.365,351.963,38.365Z"/>
            </g>
          </g>
          <g id="Group_85" data-name="Group 85">
            <g id="Group_84" data-name="Group 84">
              <path id="Path_38" data-name="Path 38" class="cls-20" d="M355.893,39.613s-.315.45-.01.457S355.893,39.613,355.893,39.613Z"/>
            </g>
          </g>
          <g id="Group_87" data-name="Group 87">
            <g id="Group_86" data-name="Group 86">
              <path id="Path_39" data-name="Path 39" class="cls-20" d="M354.373,39.6s-.314.45-.01.457S354.373,39.6,354.373,39.6Z"/>
            </g>
          </g>
          <g id="Group_89" data-name="Group 89">
            <g id="Group_88" data-name="Group 88">
              <path id="Path_40" data-name="Path 40" class="cls-20" d="M352.854,39.575s-.314.45-.01.456S352.854,39.575,352.854,39.575Z"/>
            </g>
          </g>
        </g>
      </g>
      <g id="Group_162" data-name="Group 162">
        <g id="Group_96" data-name="Group 96">
          <g id="Group_93" data-name="Group 93">
            <g id="Group_92" data-name="Group 92">
              <path id="Path_41" data-name="Path 41" class="cls-10" d="M365.961,30.973a2.979,2.979,0,0,0-1.245-.8,3.023,3.023,0,0,0-.178,1.475,3.635,3.635,0,0,0,.34,1.065c.029.052.057.1.087.148l-.008,0a4.414,4.414,0,0,0,1.5,1.544c.067-.029.166,0,.238-.031l.016.051.014-.006-.058.027-.045-.095a1.359,1.359,0,0,0,.22-.128,4.471,4.471,0,0,0-.228-2.146h0c-.018-.052-.032-.108-.054-.163A3.637,3.637,0,0,0,365.961,30.973Z"/>
            </g>
          </g>
          <g id="Group_95" data-name="Group 95">
            <g id="Group_94" data-name="Group 94">
              <path id="Path_42" data-name="Path 42" class="cls-11" d="M366.711,34.893a.449.449,0,0,1-.2-.024c-.013,0-.025-.01-.038-.015a.454.454,0,0,1-.264-.071,4.853,4.853,0,0,1-1.648-1.7.451.451,0,0,1-.028-.059c-.018-.03-.035-.061-.053-.093a4.142,4.142,0,0,1-.39-1.211,3.5,3.5,0,0,1,.2-1.7.448.448,0,0,1,.56-.266,3.41,3.41,0,0,1,1.427.915l.012.013a4.086,4.086,0,0,1,.675,1.058,1.569,1.569,0,0,1,.056.159l.009.029a.319.319,0,0,1,.012.037,4.975,4.975,0,0,1,.239,2.317.445.445,0,0,1-.132.269l0,.006a.448.448,0,0,1-.222.268l-.023.011-.012.006-.037.017A.454.454,0,0,1,366.711,34.893Zm-1.323-2.182a3.851,3.851,0,0,0,1.036,1.128,3.862,3.862,0,0,0-.22-1.577l0-.008a.387.387,0,0,1-.026-.084l0-.016a.646.646,0,0,0-.024-.07,3.191,3.191,0,0,0-.514-.806,2.67,2.67,0,0,0-.627-.492,2.651,2.651,0,0,0-.022.808,3.2,3.2,0,0,0,.3.918c.016.029.041.071.065.11A.433.433,0,0,1,365.388,32.711Z"/>
            </g>
          </g>
        </g>
        <g id="Group_101" data-name="Group 101">
          <g id="Group_98" data-name="Group 98">
            <g id="Group_97" data-name="Group 97">
              <ellipse id="Ellipse_2" data-name="Ellipse 2" class="cls-21" cx="1.181" cy="1.545" rx="1.181" ry="1.545" transform="translate(367.117 38.069) rotate(-25.323)"/>
            </g>
          </g>
          <g id="Group_100" data-name="Group 100">
            <g id="Group_99" data-name="Group 99">
              <path id="Path_43" data-name="Path 43" class="cls-22" d="M369.25,40.886a1.983,1.983,0,0,1-1.877-1.229,2.248,2.248,0,0,1-.189-1.42,1.443,1.443,0,0,1,2.154-1.019,2.251,2.251,0,0,1,.979,1.046h0a1.842,1.842,0,0,1-.619,2.5A1.349,1.349,0,0,1,369.25,40.886Zm-.717-2.96a.461.461,0,0,0-.157.043.637.637,0,0,0-.315.455,1.374,1.374,0,0,0,.122.85c.254.538.772.848,1.131.679s.447-.768.193-1.305a1.375,1.375,0,0,0-.58-.634A.74.74,0,0,0,368.533,37.926Z"/>
            </g>
          </g>
        </g>
        <g id="Group_106" data-name="Group 106">
          <g id="Group_103" data-name="Group 103">
            <g id="Group_102" data-name="Group 102">
              <ellipse id="Ellipse_3" data-name="Ellipse 3" class="cls-21" cx="1.181" cy="1.545" rx="1.181" ry="1.545" transform="translate(368.383 36.33) rotate(-25.322)"/>
            </g>
          </g>
          <g id="Group_105" data-name="Group 105">
            <g id="Group_104" data-name="Group 104">
              <path id="Path_44" data-name="Path 44" class="cls-22" d="M370.517,39.147a1.984,1.984,0,0,1-1.878-1.229,1.662,1.662,0,1,1,2.945-1.393h0a2.257,2.257,0,0,1,.188,1.421,1.51,1.51,0,0,1-.808,1.078A1.343,1.343,0,0,1,370.517,39.147Zm-.714-2.961a.476.476,0,0,0-.161.044c-.359.17-.447.767-.192,1.305s.772.848,1.131.678a.635.635,0,0,0,.314-.454,1.377,1.377,0,0,0-.121-.851A1.116,1.116,0,0,0,369.8,36.186Z"/>
            </g>
          </g>
        </g>
        <g id="Group_111" data-name="Group 111">
          <g id="Group_108" data-name="Group 108">
            <g id="Group_107" data-name="Group 107">
              <ellipse id="Ellipse_4" data-name="Ellipse 4" class="cls-21" cx="1.181" cy="1.545" rx="1.181" ry="1.545" transform="translate(365.197 38.027) rotate(-25.323)"/>
            </g>
          </g>
          <g id="Group_110" data-name="Group 110">
            <g id="Group_109" data-name="Group 109">
              <path id="Path_45" data-name="Path 45" class="cls-22" d="M367.326,40.845a1.6,1.6,0,0,1-.893-.183,2.248,2.248,0,0,1-.98-1.046,1.662,1.662,0,1,1,2.945-1.393,2.256,2.256,0,0,1,.188,1.421,1.512,1.512,0,0,1-.808,1.077A1.334,1.334,0,0,1,367.326,40.845Zm-.709-2.961a.475.475,0,0,0-.161.043c-.359.17-.447.768-.192,1.306a1.372,1.372,0,0,0,.58.633.641.641,0,0,0,.551.045.635.635,0,0,0,.314-.455,1.375,1.375,0,0,0-.122-.85h0A1.113,1.113,0,0,0,366.617,37.884Z"/>
            </g>
          </g>
        </g>
        <g id="Group_116" data-name="Group 116">
          <g id="Group_113" data-name="Group 113">
            <g id="Group_112" data-name="Group 112">
              <ellipse id="Ellipse_5" data-name="Ellipse 5" class="cls-21" cx="1.181" cy="1.545" rx="1.181" ry="1.545" transform="translate(362.642 35.437) rotate(-25.323)"/>
            </g>
          </g>
          <g id="Group_115" data-name="Group 115">
            <g id="Group_114" data-name="Group 114">
              <path id="Path_46" data-name="Path 46" class="cls-22" d="M364.771,38.255a1.611,1.611,0,0,1-.894-.183A2.346,2.346,0,0,1,362.71,35.6a1.442,1.442,0,0,1,2.153-1.019,2.346,2.346,0,0,1,1.167,2.467,1.511,1.511,0,0,1-.807,1.078A1.37,1.37,0,0,1,364.771,38.255Zm-.712-2.961a.484.484,0,0,0-.158.043.64.64,0,0,0-.315.455,1.457,1.457,0,0,0,.7,1.484.552.552,0,0,0,.865-.41,1.366,1.366,0,0,0-.121-.85h0a1.368,1.368,0,0,0-.58-.633A.738.738,0,0,0,364.059,35.294Z"/>
            </g>
          </g>
        </g>
        <g id="Group_121" data-name="Group 121">
          <g id="Group_118" data-name="Group 118">
            <g id="Group_117" data-name="Group 117">
              <ellipse id="Ellipse_6" data-name="Ellipse 6" class="cls-21" cx="1.181" cy="1.545" rx="1.181" ry="1.545" transform="translate(368.074 32.866) rotate(-25.323)"/>
            </g>
          </g>
          <g id="Group_120" data-name="Group 120">
            <g id="Group_119" data-name="Group 119">
              <path id="Path_47" data-name="Path 47" class="cls-22" d="M370.2,35.685a1.618,1.618,0,0,1-.894-.183,2.261,2.261,0,0,1-.98-1.047,1.662,1.662,0,1,1,2.945-1.393h0a1.842,1.842,0,0,1-.62,2.5A1.382,1.382,0,0,1,370.2,35.685Zm-.71-2.962a.476.476,0,0,0-.161.044c-.359.169-.447.767-.192,1.305a1.377,1.377,0,0,0,.58.633.634.634,0,0,0,.551.045c.359-.17.447-.767.192-1.305h0A1.113,1.113,0,0,0,369.494,32.723Z"/>
            </g>
          </g>
        </g>
        <g id="Group_126" data-name="Group 126">
          <g id="Group_123" data-name="Group 123">
            <g id="Group_122" data-name="Group 122">
              <ellipse id="Ellipse_7" data-name="Ellipse 7" class="cls-21" cx="1.181" cy="1.545" rx="1.181" ry="1.545" transform="translate(363.435 34.302) rotate(-25.323)"/>
            </g>
          </g>
          <g id="Group_125" data-name="Group 125">
            <g id="Group_124" data-name="Group 124">
              <path id="Path_48" data-name="Path 48" class="cls-22" d="M365.564,37.12a1.609,1.609,0,0,1-.894-.183A2.345,2.345,0,0,1,363.5,34.47a1.442,1.442,0,0,1,2.153-1.019,2.345,2.345,0,0,1,1.168,2.467A1.51,1.51,0,0,1,366.015,37,1.358,1.358,0,0,1,365.564,37.12Zm-.713-2.961a.473.473,0,0,0-.158.043.638.638,0,0,0-.314.455,1.457,1.457,0,0,0,.7,1.484.552.552,0,0,0,.865-.41,1.367,1.367,0,0,0-.122-.85h0a1.37,1.37,0,0,0-.58-.634A.745.745,0,0,0,364.851,34.159Z"/>
            </g>
          </g>
        </g>
        <g id="Group_131" data-name="Group 131">
          <g id="Group_128" data-name="Group 128">
            <g id="Group_127" data-name="Group 127">
              <ellipse id="Ellipse_8" data-name="Ellipse 8" class="cls-21" cx="1.181" cy="1.545" rx="1.181" ry="1.545" transform="translate(363.368 37.373) rotate(-25.323)"/>
            </g>
          </g>
          <g id="Group_130" data-name="Group 130">
            <g id="Group_129" data-name="Group 129">
              <path id="Path_49" data-name="Path 49" class="cls-22" d="M365.5,40.191a1.984,1.984,0,0,1-1.878-1.229,2.25,2.25,0,0,1-.188-1.421,1.442,1.442,0,0,1,2.153-1.019,2.251,2.251,0,0,1,.979,1.046h0a1.84,1.84,0,0,1-.619,2.5A1.345,1.345,0,0,1,365.5,40.191Zm-.717-2.961a.484.484,0,0,0-.158.043.643.643,0,0,0-.315.455,1.373,1.373,0,0,0,.122.85c.255.538.772.848,1.131.679s.447-.768.193-1.305a1.367,1.367,0,0,0-.58-.633A.738.738,0,0,0,364.785,37.23Z"/>
            </g>
          </g>
        </g>
        <g id="Group_136" data-name="Group 136">
          <g id="Group_133" data-name="Group 133">
            <g id="Group_132" data-name="Group 132">
              <ellipse id="Ellipse_9" data-name="Ellipse 9" class="cls-21" cx="1.181" cy="1.545" rx="1.181" ry="1.545" transform="translate(368.809 34.419) rotate(-25.323)"/>
            </g>
          </g>
          <g id="Group_135" data-name="Group 135">
            <g id="Group_134" data-name="Group 134">
              <path id="Path_50" data-name="Path 50" class="cls-22" d="M370.938,37.237a1.611,1.611,0,0,1-.894-.183,2.254,2.254,0,0,1-.979-1.047,1.843,1.843,0,0,1,.619-2.5,1.515,1.515,0,0,1,1.346.059,2.254,2.254,0,0,1,.979,1.047h0a1.84,1.84,0,0,1-.619,2.5A1.388,1.388,0,0,1,370.938,37.237Zm-.712-2.961a.46.46,0,0,0-.158.043c-.359.17-.447.767-.193,1.305a1.377,1.377,0,0,0,.58.633.634.634,0,0,0,.551.045c.359-.169.447-.767.193-1.3a1.377,1.377,0,0,0-.58-.633A.729.729,0,0,0,370.226,34.276Z"/>
            </g>
          </g>
        </g>
        <g id="Group_141" data-name="Group 141">
          <g id="Group_138" data-name="Group 138">
            <g id="Group_137" data-name="Group 137">
              <ellipse id="Ellipse_10" data-name="Ellipse 10" class="cls-21" cx="1.181" cy="1.545" rx="1.181" ry="1.545" transform="translate(364.324 35.781) rotate(-25.322)"/>
            </g>
          </g>
          <g id="Group_140" data-name="Group 140">
            <g id="Group_139" data-name="Group 139">
              <path id="Path_51" data-name="Path 51" class="cls-22" d="M366.453,38.6a1.608,1.608,0,0,1-.893-.183,2.246,2.246,0,0,1-.98-1.047,1.841,1.841,0,0,1,.62-2.5,1.51,1.51,0,0,1,1.345.059,2.258,2.258,0,0,1,.98,1.046h0a2.257,2.257,0,0,1,.188,1.421,1.512,1.512,0,0,1-.808,1.078A1.363,1.363,0,0,1,366.453,38.6Zm-.712-2.961a.466.466,0,0,0-.158.043c-.359.17-.447.767-.193,1.305a1.369,1.369,0,0,0,.581.633.552.552,0,0,0,.865-.409,1.455,1.455,0,0,0-.7-1.484A.727.727,0,0,0,365.741,35.638Z"/>
            </g>
          </g>
        </g>
        <g id="Group_146" data-name="Group 146">
          <g id="Group_143" data-name="Group 143">
            <g id="Group_142" data-name="Group 142">
              <ellipse id="Ellipse_11" data-name="Ellipse 11" class="cls-21" cx="1.181" cy="1.545" rx="1.181" ry="1.545" transform="translate(366.465 32.678) rotate(-25.322)"/>
            </g>
          </g>
          <g id="Group_145" data-name="Group 145">
            <g id="Group_144" data-name="Group 144">
              <path id="Path_52" data-name="Path 52" class="cls-22" d="M368.6,35.495a1.984,1.984,0,0,1-1.878-1.229,2.256,2.256,0,0,1-.188-1.421,1.512,1.512,0,0,1,.808-1.077,1.841,1.841,0,0,1,2.325,1.105h0a1.842,1.842,0,0,1-.62,2.5A1.343,1.343,0,0,1,368.6,35.495Zm-.714-2.961a.5.5,0,0,0-.161.044.638.638,0,0,0-.314.455,1.375,1.375,0,0,0,.122.85c.254.538.772.848,1.131.679s.447-.768.193-1.305A1.117,1.117,0,0,0,367.885,32.534Z"/>
            </g>
          </g>
        </g>
        <g id="Group_151" data-name="Group 151">
          <g id="Group_148" data-name="Group 148">
            <g id="Group_147" data-name="Group 147">
              <ellipse id="Ellipse_12" data-name="Ellipse 12" class="cls-21" cx="1.181" cy="1.545" rx="1.181" ry="1.545" transform="translate(367.347 34.54) rotate(-25.323)"/>
            </g>
          </g>
          <g id="Group_150" data-name="Group 150">
            <g id="Group_149" data-name="Group 149">
              <path id="Path_53" data-name="Path 53" class="cls-22" d="M369.476,37.359a1.62,1.62,0,0,1-.894-.183,2.348,2.348,0,0,1-1.167-2.468,1.442,1.442,0,0,1,2.153-1.019,2.351,2.351,0,0,1,1.168,2.468,1.517,1.517,0,0,1-.808,1.078A1.4,1.4,0,0,1,369.476,37.359Zm-.712-2.962a.493.493,0,0,0-.158.044.636.636,0,0,0-.315.454,1.455,1.455,0,0,0,.7,1.484.553.553,0,0,0,.866-.409,1.378,1.378,0,0,0-.122-.851h0a1.377,1.377,0,0,0-.58-.633A.738.738,0,0,0,368.764,34.4Z"/>
            </g>
          </g>
        </g>
        <g id="Group_156" data-name="Group 156">
          <g id="Group_153" data-name="Group 153">
            <g id="Group_152" data-name="Group 152">
              <ellipse id="Ellipse_13" data-name="Ellipse 13" class="cls-21" cx="1.181" cy="1.545" rx="1.181" ry="1.545" transform="translate(365.06 33.723) rotate(-25.323)"/>
            </g>
          </g>
          <g id="Group_155" data-name="Group 155">
            <g id="Group_154" data-name="Group 154">
              <path id="Path_54" data-name="Path 54" class="cls-22" d="M367.189,36.541a1.608,1.608,0,0,1-.893-.183,2.246,2.246,0,0,1-.98-1.047,1.841,1.841,0,0,1,.62-2.5,1.51,1.51,0,0,1,1.345.059,2.258,2.258,0,0,1,.98,1.046h0a1.842,1.842,0,0,1-.62,2.5A1.363,1.363,0,0,1,367.189,36.541Zm-.712-2.961a.466.466,0,0,0-.158.043c-.359.17-.447.767-.193,1.305a1.369,1.369,0,0,0,.581.633.634.634,0,0,0,.551.045c.358-.169.447-.767.192-1.305a1.377,1.377,0,0,0-.58-.633A.727.727,0,0,0,366.477,33.58Z"/>
            </g>
          </g>
        </g>
        <g id="Group_161" data-name="Group 161">
          <g id="Group_158" data-name="Group 158">
            <g id="Group_157" data-name="Group 157">
              <ellipse id="Ellipse_14" data-name="Ellipse 14" class="cls-21" cx="1.181" cy="1.545" rx="1.181" ry="1.545" transform="translate(366.382 36.517) rotate(-25.323)"/>
            </g>
          </g>
          <g id="Group_160" data-name="Group 160">
            <g id="Group_159" data-name="Group 159">
              <path id="Path_55" data-name="Path 55" class="cls-22" d="M368.516,39.334a1.984,1.984,0,0,1-1.878-1.229,1.842,1.842,0,0,1,.62-2.5,1.513,1.513,0,0,1,1.345.06,2.253,2.253,0,0,1,.98,1.046h0a1.842,1.842,0,0,1-.62,2.5A1.343,1.343,0,0,1,368.516,39.334Zm-.717-2.96a.467.467,0,0,0-.158.043c-.359.17-.447.767-.192,1.305s.772.849,1.131.678.447-.767.192-1.305a1.377,1.377,0,0,0-.58-.633A.727.727,0,0,0,367.8,36.374Z"/>
            </g>
          </g>
        </g>
      </g>
      <g id="Group_176" data-name="Group 176">
        <g id="Group_164" data-name="Group 164">
          <g id="Group_163" data-name="Group 163">
            <path id="Path_56" data-name="Path 56" class="cls-23" d="M372.883,42.469a.574.574,0,0,1-.235-.05,1.394,1.394,0,0,1-.754-.946,2.568,2.568,0,0,1,.827-2.153.582.582,0,0,1,.882.76c-.61.708-.593,1.05-.573,1.138a.25.25,0,0,0,.089.137.582.582,0,0,1-.236,1.114Z"/>
          </g>
        </g>
        <g id="Group_167" data-name="Group 167">
          <g id="Group_165" data-name="Group 165">
            <path id="Path_57" data-name="Path 57" class="cls-24" d="M368.859,45.91A4.009,4.009,0,0,0,373,49.793a4.112,4.112,0,0,0,3.756-4.319,3.921,3.921,0,0,0-4.228-3.553A4.125,4.125,0,0,0,368.859,45.91Z"/>
          </g>
          <g id="Group_166" data-name="Group 166">
            <path id="Path_58" data-name="Path 58" class="cls-25" d="M372.727,50.385a4.265,4.265,0,0,1-2.911-1.167,4.912,4.912,0,0,1-1.537-3.265h0a4.189,4.189,0,0,1,1.182-3.056,4.462,4.462,0,0,1,6.225-.564,4.319,4.319,0,0,1,1.647,3.1,4.692,4.692,0,0,1-4.293,4.943C372.935,50.381,372.831,50.385,372.727,50.385Zm.084-7.892c-.081,0-.162,0-.243.009a3.475,3.475,0,0,0-2.246,1.179,3.074,3.074,0,0,0-.883,2.185h0a3.759,3.759,0,0,0,1.168,2.5,3.1,3.1,0,0,0,2.347.849,3.515,3.515,0,0,0,3.219-3.695,3.174,3.174,0,0,0-1.209-2.273A3.505,3.505,0,0,0,372.811,42.493Z"/>
          </g>
        </g>
        <g id="Group_169" data-name="Group 169">
          <g id="Group_168" data-name="Group 168">
            <path id="Path_59" data-name="Path 59" class="cls-25" d="M374.806,43.86a.338.338,0,1,1-.363-.312A.339.339,0,0,1,374.806,43.86Z"/>
          </g>
        </g>
        <g id="Group_171" data-name="Group 171">
          <g id="Group_170" data-name="Group 170">
            <path id="Path_60" data-name="Path 60" class="cls-25" d="M375.7,45.251a.338.338,0,1,1-.363-.312A.338.338,0,0,1,375.7,45.251Z"/>
          </g>
        </g>
        <g id="Group_173" data-name="Group 173">
          <g id="Group_172" data-name="Group 172">
            <path id="Path_61" data-name="Path 61" class="cls-25" d="M374.655,46.308a.388.388,0,1,1-.415-.357A.389.389,0,0,1,374.655,46.308Z"/>
          </g>
        </g>
        <g id="Group_175" data-name="Group 175">
          <g id="Group_174" data-name="Group 174">
            <path id="Path_62" data-name="Path 62" class="cls-25" d="M373.872,45.061a.188.188,0,1,1-.2-.174A.188.188,0,0,1,373.872,45.061Z"/>
          </g>
        </g>
      </g>
      <g id="Group_189" data-name="Group 189">
        <g id="Group_178" data-name="Group 178">
          <g id="Group_177" data-name="Group 177">
            <path id="Path_63" data-name="Path 63" class="cls-12" d="M334.753,40.136l-.075.084a3.509,3.509,0,0,1-2.2-2.594,6.284,6.284,0,0,1,3.391-7.175,3.308,3.308,0,0,1,2.537-.11l.823-.377a.19.19,0,0,1,.167.13c.057.132.032.207-.931.49a7,7,0,0,0-3.736,4.032A7.043,7.043,0,0,0,334.753,40.136Z"/>
          </g>
        </g>
        <g id="Group_180" data-name="Group 180">
          <g id="Group_179" data-name="Group 179">
            <path id="Path_64" data-name="Path 64" class="cls-26" d="M338.014,30.319a6.875,6.875,0,0,0-3.706,2.818,7.923,7.923,0,0,0-.984,4.878,6.1,6.1,0,0,0,.784,1.992,3.632,3.632,0,0,1-1.536-2.262,6.284,6.284,0,0,1,3.392-7.174A3.887,3.887,0,0,1,338.014,30.319Z"/>
          </g>
        </g>
        <g id="Group_182" data-name="Group 182">
          <g id="Group_181" data-name="Group 181">
            <path id="Path_65" data-name="Path 65" class="cls-12" d="M331.9,38.571l-.092.067a3.509,3.509,0,0,1-1.6-3,6.285,6.285,0,0,1,4.835-6.293,3.309,3.309,0,0,1,2.5.43l.884-.194a.19.19,0,0,1,.135.162c.028.141-.013.21-1.013.282a7.5,7.5,0,0,0-5.651,8.548Z"/>
          </g>
        </g>
        <g id="Group_184" data-name="Group 184">
          <g id="Group_183" data-name="Group 183">
            <path id="Path_66" data-name="Path 66" class="cls-26" d="M337.222,29.589A6.875,6.875,0,0,0,333,31.559a7.923,7.923,0,0,0-2,4.558,6.136,6.136,0,0,0,.344,2.113,3.633,3.633,0,0,1-1.021-2.536,6.283,6.283,0,0,1,4.835-6.293A3.9,3.9,0,0,1,337.222,29.589Z"/>
          </g>
        </g>
        <g id="Group_186" data-name="Group 186">
          <g id="Group_185" data-name="Group 185">
            <path id="Path_67" data-name="Path 67" class="cls-13" d="M334.874,40.914l-.369-.109a4.11,4.11,0,0,1-2.621-3.039,6.925,6.925,0,0,1,3.732-7.869l.038-.016a4.218,4.218,0,0,1,2.728-.2l.707-.324.126,0a.794.794,0,0,1,.741.5.71.71,0,0,1,0,.6c-.157.335-.493.468-1.268.7l-.1.049a6.39,6.39,0,0,0-3.3,3.636,6.479,6.479,0,0,0-.035,4.924l.194.5Zm1.23-9.9a5.7,5.7,0,0,0-3.033,6.469,3.225,3.225,0,0,0,.627,1.308,8.547,8.547,0,0,1,.454-4.373l.019-.049a8.322,8.322,0,0,1,2.681-3.561A4.181,4.181,0,0,0,336.1,31.015Z"/>
          </g>
        </g>
        <g id="Group_188" data-name="Group 188">
          <g id="Group_187" data-name="Group 187">
            <path id="Path_68" data-name="Path 68" class="cls-13" d="M331.853,39.358l-.339-.185a4.11,4.11,0,0,1-1.917-3.525,6.923,6.923,0,0,1,5.314-6.9l.041-.008a4.219,4.219,0,0,1,2.708.383l.76-.167.123.024a.805.805,0,0,1,.619.646.713.713,0,0,1-.127.589c-.225.294-.581.353-1.387.412l-.105.027a6.393,6.393,0,0,0-3.991,2.855,6.489,6.489,0,0,0-1.078,4.805l.083.533Zm3.3-9.414a5.7,5.7,0,0,0-4.335,5.68,3.216,3.216,0,0,0,.336,1.41,8.548,8.548,0,0,1,1.37-4.177l.029-.044a8.322,8.322,0,0,1,3.375-2.911A4.052,4.052,0,0,0,335.151,29.944Z"/>
          </g>
        </g>
      </g>
      <g id="Group_197" data-name="Group 197">
        <g id="Group_191" data-name="Group 191">
          <g id="Group_190" data-name="Group 190">
            <path id="Path_69" data-name="Path 69" class="cls-16" d="M361.037,43.966s.685-2.135,2.586-1.8"/>
          </g>
        </g>
        <g id="Group_193" data-name="Group 193">
          <g id="Group_192" data-name="Group 192">
            <path id="Path_70" data-name="Path 70" class="cls-16" d="M359.007,39.463s-1.229,3.175,1.982,3.74C362.448,41.575,359.007,39.463,359.007,39.463Z"/>
          </g>
        </g>
        <g id="Group_196" data-name="Group 196">
          <g id="Group_194" data-name="Group 194">
            <path id="Path_71" data-name="Path 71" class="cls-27" d="M360.762,42.888c1.064.245.7.737,1.244.955.588.044.473-.559,1.537-.314a3.309,3.309,0,0,1,2.6,4.162c-.711,3.083-3.484,4.744-4.4,4.531-.9-.206-.779-.548-1.491-.765-.735-.116-.781.242-1.675.035-.921-.212-2.687-2.919-1.976-6A3.308,3.308,0,0,1,360.762,42.888Z"/>
          </g>
          <g id="Group_195" data-name="Group 195">
            <path id="Path_72" data-name="Path 72" class="cls-16" d="M361.908,52.738a1.215,1.215,0,0,1-.278-.03,2.254,2.254,0,0,1-1.064-.516.837.837,0,0,0-.92-.212,2.275,2.275,0,0,1-1.182,0c-1.259-.291-3.116-3.277-2.35-6.6a3.782,3.782,0,0,1,4.76-2.977h0a1.551,1.551,0,0,1,1.2.84c.024.043.038.07.05.088.019-.011.045-.029.085-.057a1.551,1.551,0,0,1,1.446-.23,3.782,3.782,0,0,1,2.977,4.76C365.917,50.9,363.282,52.737,361.908,52.738Zm-1.94-1.8a2.353,2.353,0,0,1,.361.029l.068.016a2.128,2.128,0,0,1,.8.44,1.31,1.31,0,0,0,.657.316c.533.125,3.13-1.227,3.806-4.157a2.8,2.8,0,0,0-2.229-3.564c-.414-.1-.5-.034-.641.068a1.134,1.134,0,0,1-.821.257l-.076-.005-.071-.029a1.14,1.14,0,0,1-.625-.591c-.083-.153-.133-.246-.547-.341a2.8,2.8,0,0,0-3.564,2.229c-.675,2.929,1.061,5.279,1.6,5.4a1.315,1.315,0,0,0,.729,0A2.217,2.217,0,0,1,359.968,50.935Z"/>
          </g>
        </g>
      </g>
      <g id="Group_200" data-name="Group 200">
        <g id="Group_198" data-name="Group 198">
          <path id="Path_73" data-name="Path 73" class="cls-27" d="M363.821,46.134a6.159,6.159,0,0,1-2.665,5.766"/>
        </g>
        <g id="Group_199" data-name="Group 199">
          <path id="Path_74" data-name="Path 74" class="cls-28" d="M361.157,52.455a.556.556,0,0,1-.285-1.033,5.623,5.623,0,0,0,2.4-5.205.556.556,0,0,1,1.1-.167,6.745,6.745,0,0,1-2.931,6.327A.552.552,0,0,1,361.157,52.455Z"/>
        </g>
      </g>
      <g id="Group_253" data-name="Group 253">
        <g id="Group_203" data-name="Group 203">
          <g id="Group_201" data-name="Group 201">
            <circle id="Ellipse_15" data-name="Ellipse 15" class="cls-29" cx="1.622" cy="1.622" r="1.622" transform="translate(350.856 46.02)"/>
          </g>
          <g id="Group_202" data-name="Group 202">
            <path id="Path_75" data-name="Path 75" class="cls-30" d="M352.474,49.761a2.119,2.119,0,1,1,1.862-1.1h0A2.121,2.121,0,0,1,352.474,49.761Zm.006-3.242a1.121,1.121,0,1,0,.539.138A1.124,1.124,0,0,0,352.48,46.519Z"/>
          </g>
        </g>
        <g id="Group_205" data-name="Group 205">
          <g id="Group_204" data-name="Group 204">
            <path id="Path_76" data-name="Path 76" class="cls-23" d="M348.764,46.715a.5.5,0,0,1-.364-.837c.626-.671,1-1.147,1.272-1.495a5.645,5.645,0,0,1,.39-.46,2.621,2.621,0,0,1-1.082-2.315.5.5,0,0,1,.984.154c-.008.064-.116,1.223,1.843,2.045a.5.5,0,0,1-.368.925,4.052,4.052,0,0,0-.59-.2,3.932,3.932,0,0,0-.394.463c-.267.342-.672.858-1.327,1.56A.5.5,0,0,1,348.764,46.715Z"/>
          </g>
        </g>
        <g id="Group_208" data-name="Group 208">
          <g id="Group_206" data-name="Group 206">
            <circle id="Ellipse_16" data-name="Ellipse 16" class="cls-29" cx="1.622" cy="1.622" r="1.622" transform="translate(342.868 52.499) rotate(-51.969)"/>
          </g>
          <g id="Group_207" data-name="Group 207">
            <path id="Path_77" data-name="Path 77" class="cls-30" d="M345.142,54.342a2.13,2.13,0,1,1,.6-.086A2.13,2.13,0,0,1,345.142,54.342Zm.005-3.244a1.123,1.123,0,1,0,.983,1.664h0a1.122,1.122,0,0,0-.983-1.664Z"/>
          </g>
        </g>
        <g id="Group_211" data-name="Group 211">
          <g id="Group_209" data-name="Group 209">
            <circle id="Ellipse_17" data-name="Ellipse 17" class="cls-29" cx="1.622" cy="1.622" r="1.622" transform="translate(343.458 47.896)"/>
          </g>
          <g id="Group_210" data-name="Group 210">
            <path id="Path_78" data-name="Path 78" class="cls-30" d="M345.077,51.637a2.119,2.119,0,1,1,1.861-1.1h0A2.12,2.12,0,0,1,345.077,51.637Zm.005-3.243a1.138,1.138,0,0,0-.316.045,1.121,1.121,0,1,0,.316-.045Z"/>
          </g>
        </g>
        <g id="Group_214" data-name="Group 214">
          <g id="Group_212" data-name="Group 212">
            <circle id="Ellipse_18" data-name="Ellipse 18" class="cls-29" cx="1.622" cy="1.622" r="1.622" transform="translate(345.342 51.465) rotate(-52.419)"/>
          </g>
          <g id="Group_213" data-name="Group 213">
            <path id="Path_79" data-name="Path 79" class="cls-30" d="M347.612,53.288a2.12,2.12,0,1,1,1.862-1.1A2.109,2.109,0,0,1,347.612,53.288Zm.005-3.244a1.136,1.136,0,0,0-.315.045,1.114,1.114,0,0,0-.671.539,1.123,1.123,0,1,0,.986-.584Z"/>
          </g>
        </g>
        <g id="Group_217" data-name="Group 217">
          <g id="Group_215" data-name="Group 215">
            <circle id="Ellipse_19" data-name="Ellipse 19" class="cls-29" cx="1.622" cy="1.622" r="1.622" transform="translate(348.323 47.813)"/>
          </g>
          <g id="Group_216" data-name="Group 216">
            <path id="Path_80" data-name="Path 80" class="cls-30" d="M349.941,51.554a2.119,2.119,0,1,1,1.862-1.1A2.11,2.11,0,0,1,349.941,51.554Zm.005-3.243a1.124,1.124,0,1,0,.539.139A1.126,1.126,0,0,0,349.946,48.311Z"/>
          </g>
        </g>
        <g id="Group_220" data-name="Group 220">
          <g id="Group_218" data-name="Group 218">
            <circle id="Ellipse_20" data-name="Ellipse 20" class="cls-29" cx="1.622" cy="1.622" r="1.622" transform="translate(346.009 46.543)"/>
          </g>
          <g id="Group_219" data-name="Group 219">
            <path id="Path_81" data-name="Path 81" class="cls-30" d="M347.627,50.285a2.122,2.122,0,1,1,.6-.085A2.136,2.136,0,0,1,347.627,50.285Zm0-3.244a1.124,1.124,0,1,0,.313,2.2,1.112,1.112,0,0,0,.67-.539h0a1.124,1.124,0,0,0-.444-1.526A1.126,1.126,0,0,0,347.632,47.041Z"/>
          </g>
        </g>
        <g id="Group_223" data-name="Group 223">
          <g id="Group_221" data-name="Group 221">
            <circle id="Ellipse_21" data-name="Ellipse 21" class="cls-29" cx="1.622" cy="1.622" r="1.622" transform="translate(343.972 45.08)"/>
          </g>
          <g id="Group_222" data-name="Group 222">
            <path id="Path_82" data-name="Path 82" class="cls-30" d="M345.59,48.821a2.119,2.119,0,1,1,1.862-1.1h0A2.122,2.122,0,0,1,345.59,48.821Zm.006-3.243a1.123,1.123,0,0,0-1.081,1.438,1.113,1.113,0,0,0,.538.671,1.124,1.124,0,1,0,.543-2.109Z"/>
          </g>
        </g>
        <g id="Group_226" data-name="Group 226">
          <g id="Group_224" data-name="Group 224">
            <circle id="Ellipse_22" data-name="Ellipse 22" class="cls-29" cx="1.622" cy="1.622" r="1.622" transform="translate(343.839 44.491) rotate(-61.231)"/>
          </g>
          <g id="Group_225" data-name="Group 225">
            <path id="Path_83" data-name="Path 83" class="cls-30" d="M346.038,45.971a2.121,2.121,0,1,1,1.861-1.1h0a2.107,2.107,0,0,1-1.266,1.015A2.13,2.13,0,0,1,346.038,45.971Zm.005-3.245a1.124,1.124,0,1,0,.539.139A1.125,1.125,0,0,0,346.043,42.726Z"/>
          </g>
        </g>
        <g id="Group_229" data-name="Group 229">
          <g id="Group_227" data-name="Group 227">
            <circle id="Ellipse_23" data-name="Ellipse 23" class="cls-29" cx="1.622" cy="1.622" r="1.622" transform="translate(348.806 44.895)"/>
          </g>
          <g id="Group_228" data-name="Group 228">
            <path id="Path_84" data-name="Path 84" class="cls-30" d="M350.425,48.636a2.119,2.119,0,1,1,1.861-1.1A2.11,2.11,0,0,1,350.425,48.636Zm.005-3.243a1.124,1.124,0,1,0,.539.139A1.125,1.125,0,0,0,350.43,45.393Z"/>
          </g>
        </g>
        <g id="Group_232" data-name="Group 232">
          <g id="Group_230" data-name="Group 230">
            <circle id="Ellipse_24" data-name="Ellipse 24" class="cls-29" cx="1.622" cy="1.622" r="1.622" transform="translate(346.823 43.806)"/>
          </g>
          <g id="Group_231" data-name="Group 231">
            <path id="Path_85" data-name="Path 85" class="cls-30" d="M348.442,47.548a2.124,2.124,0,1,1,.6-.085A2.114,2.114,0,0,1,348.442,47.548Zm0-3.244a1.125,1.125,0,1,0,.539.139A1.124,1.124,0,0,0,348.446,44.3Z"/>
          </g>
        </g>
        <g id="Group_234" data-name="Group 234">
          <g id="Group_233" data-name="Group 233">
            <path id="Path_86" data-name="Path 86" class="cls-30" d="M350.675,47.235a.281.281,0,1,1-.111-.382A.28.28,0,0,1,350.675,47.235Z"/>
          </g>
        </g>
        <g id="Group_236" data-name="Group 236">
          <g id="Group_235" data-name="Group 235">
            <path id="Path_87" data-name="Path 87" class="cls-30" d="M346.007,43.984a.281.281,0,1,1-.111-.382A.281.281,0,0,1,346.007,43.984Z"/>
          </g>
        </g>
        <g id="Group_238" data-name="Group 238">
          <g id="Group_237" data-name="Group 237">
            <path id="Path_88" data-name="Path 88" class="cls-30" d="M345.444,47.2a.281.281,0,1,1-.111-.382A.281.281,0,0,1,345.444,47.2Z"/>
          </g>
        </g>
        <g id="Group_240" data-name="Group 240">
          <g id="Group_239" data-name="Group 239">
            <path id="Path_89" data-name="Path 89" class="cls-30" d="M347.613,48.738a.281.281,0,1,1-.111-.382A.281.281,0,0,1,347.613,48.738Z"/>
          </g>
        </g>
        <g id="Group_242" data-name="Group 242">
          <g id="Group_241" data-name="Group 241">
            <circle id="Ellipse_25" data-name="Ellipse 25" class="cls-30" cx="0.281" cy="0.281" r="0.281" transform="translate(349.399 49.592)"/>
          </g>
        </g>
        <g id="Group_244" data-name="Group 244">
          <g id="Group_243" data-name="Group 243">
            <path id="Path_90" data-name="Path 90" class="cls-30" d="M347.467,51.669a.282.282,0,1,1-.112-.382A.281.281,0,0,1,347.467,51.669Z"/>
          </g>
        </g>
        <g id="Group_246" data-name="Group 246">
          <g id="Group_245" data-name="Group 245">
            <circle id="Ellipse_26" data-name="Ellipse 26" class="cls-30" cx="0.281" cy="0.281" r="0.281" transform="translate(344.571 49.608)"/>
          </g>
        </g>
        <g id="Group_248" data-name="Group 248">
          <g id="Group_247" data-name="Group 247">
            <path id="Path_91" data-name="Path 91" class="cls-30" d="M344.989,52.89a.281.281,0,1,1-.111-.382A.281.281,0,0,1,344.989,52.89Z"/>
          </g>
        </g>
        <g id="Group_250" data-name="Group 250">
          <g id="Group_249" data-name="Group 249">
            <path id="Path_92" data-name="Path 92" class="cls-30" d="M348.427,46a.281.281,0,1,1-.111-.382A.281.281,0,0,1,348.427,46Z"/>
          </g>
        </g>
        <g id="Group_252" data-name="Group 252">
          <g id="Group_251" data-name="Group 251">
            <path id="Path_93" data-name="Path 93" class="cls-30" d="M353.244,48.043a.281.281,0,1,1-.111-.382A.281.281,0,0,1,353.244,48.043Z"/>
          </g>
        </g>
      </g>
      <g id="Group_299" data-name="Group 299">
        <g id="Group_256" data-name="Group 256">
          <g id="Group_254" data-name="Group 254">
            <circle id="Ellipse_27" data-name="Ellipse 27" class="cls-31" cx="4.153" cy="4.153" r="4.153" transform="translate(342.791 27.252)"/>
          </g>
          <g id="Group_255" data-name="Group 255">
            <path id="Path_94" data-name="Path 94" class="cls-32" d="M346.944,36.168a4.763,4.763,0,1,1,4.763-4.763A4.769,4.769,0,0,1,346.944,36.168Zm0-8.306a3.543,3.543,0,1,0,3.543,3.543A3.547,3.547,0,0,0,346.944,27.862Z"/>
          </g>
        </g>
        <g id="Group_258" data-name="Group 258">
          <g id="Group_257" data-name="Group 257">
            <path id="Path_95" data-name="Path 95" class="cls-9" d="M346.824,30.255c.066-.224.174-.224.24,0a.271.271,0,0,0,.456.148c.184-.142.272-.079.193.141a.271.271,0,0,0,.282.387c.233-.006.266.1.074.228a.272.272,0,0,0,0,.48c.192.131.159.234-.074.227a.272.272,0,0,0-.282.388c.079.22-.009.283-.193.141a.271.271,0,0,0-.456.148c-.066.224-.174.224-.24,0a.271.271,0,0,0-.456-.148c-.184.142-.272.079-.193-.141a.272.272,0,0,0-.282-.388c-.233.007-.266-.1-.074-.227a.272.272,0,0,0,0-.48c-.192-.131-.159-.234.074-.228a.271.271,0,0,0,.282-.387c-.079-.22.009-.283.193-.141A.271.271,0,0,0,346.824,30.255Z"/>
          </g>
        </g>
        <g id="Group_263" data-name="Group 263">
          <g id="Group_260" data-name="Group 260">
            <g id="Group_259" data-name="Group 259">
              <path id="Path_96" data-name="Path 96" class="cls-32" d="M346.935,29.66s.529-.711.038-.737S346.935,29.66,346.935,29.66Z"/>
            </g>
          </g>
          <g id="Group_262" data-name="Group 262">
            <g id="Group_261" data-name="Group 261">
              <path id="Path_97" data-name="Path 97" class="cls-32" d="M346.973,33.223s-.529.71-.038.736S346.973,33.223,346.973,33.223Z"/>
            </g>
          </g>
        </g>
        <g id="Group_268" data-name="Group 268">
          <g id="Group_265" data-name="Group 265">
            <g id="Group_264" data-name="Group 264">
              <path id="Path_98" data-name="Path 98" class="cls-32" d="M345.648,30.159s-.128-.877-.493-.548S345.648,30.159,345.648,30.159Z"/>
            </g>
          </g>
          <g id="Group_267" data-name="Group 267">
            <g id="Group_266" data-name="Group 266">
              <path id="Path_99" data-name="Path 99" class="cls-32" d="M348.2,32.651s.128.877.494.548S348.2,32.651,348.2,32.651Z"/>
            </g>
          </g>
        </g>
        <g id="Group_273" data-name="Group 273">
          <g id="Group_270" data-name="Group 270">
            <g id="Group_269" data-name="Group 269">
              <path id="Path_100" data-name="Path 100" class="cls-32" d="M348.168,30.132s.877-.129.548-.494S348.168,30.132,348.168,30.132Z"/>
            </g>
          </g>
          <g id="Group_272" data-name="Group 272">
            <g id="Group_271" data-name="Group 271">
              <path id="Path_101" data-name="Path 101" class="cls-32" d="M345.675,32.678s-.876.129-.547.494S345.675,32.678,345.675,32.678Z"/>
            </g>
          </g>
        </g>
        <g id="Group_278" data-name="Group 278">
          <g id="Group_275" data-name="Group 275">
            <g id="Group_274" data-name="Group 274">
              <path id="Path_102" data-name="Path 102" class="cls-32" d="M348.736,31.386s.711.529.736.038S348.736,31.386,348.736,31.386Z"/>
            </g>
          </g>
          <g id="Group_277" data-name="Group 277">
            <g id="Group_276" data-name="Group 276">
              <path id="Path_103" data-name="Path 103" class="cls-32" d="M345.173,31.424s-.711-.529-.737-.038S345.173,31.424,345.173,31.424Z"/>
            </g>
          </g>
        </g>
        <g id="Group_283" data-name="Group 283">
          <g id="Group_280" data-name="Group 280">
            <g id="Group_279" data-name="Group 279">
              <path id="Path_104" data-name="Path 104" class="cls-32" d="M346,28.83s.141-.47-.119-.391S346,28.83,346,28.83Z"/>
            </g>
          </g>
          <g id="Group_282" data-name="Group 282">
            <g id="Group_281" data-name="Group 281">
              <path id="Path_105" data-name="Path 105" class="cls-32" d="M347.91,34.05s-.142.47.119.391S347.91,34.05,347.91,34.05Z"/>
            </g>
          </g>
        </g>
        <g id="Group_288" data-name="Group 288">
          <g id="Group_285" data-name="Group 285">
            <g id="Group_284" data-name="Group 284">
              <path id="Path_106" data-name="Path 106" class="cls-32" d="M344.443,32.623s-.483-.092-.377.159S344.443,32.623,344.443,32.623Z"/>
            </g>
          </g>
          <g id="Group_287" data-name="Group 287">
            <g id="Group_286" data-name="Group 286">
              <path id="Path_107" data-name="Path 107" class="cls-32" d="M349.431,30.172s.483.091.377-.16S349.431,30.172,349.431,30.172Z"/>
            </g>
          </g>
        </g>
        <g id="Group_293" data-name="Group 293">
          <g id="Group_290" data-name="Group 290">
            <g id="Group_289" data-name="Group 289">
              <path id="Path_108" data-name="Path 108" class="cls-32" d="M348.124,28.919s.433-.232.192-.361S348.124,28.919,348.124,28.919Z"/>
            </g>
          </g>
          <g id="Group_292" data-name="Group 292">
            <g id="Group_291" data-name="Group 291">
              <path id="Path_109" data-name="Path 109" class="cls-32" d="M345.785,33.961s-.433.232-.193.361S345.785,33.961,345.785,33.961Z"/>
            </g>
          </g>
        </g>
        <g id="Group_298" data-name="Group 298">
          <g id="Group_295" data-name="Group 295">
            <g id="Group_294" data-name="Group 294">
              <path id="Path_110" data-name="Path 110" class="cls-32" d="M349.518,32.47s.249.423.368.178S349.518,32.47,349.518,32.47Z"/>
            </g>
          </g>
          <g id="Group_297" data-name="Group 297">
            <g id="Group_296" data-name="Group 296">
              <path id="Path_111" data-name="Path 111" class="cls-32" d="M344.39,30.325s-.248-.424-.367-.179S344.39,30.325,344.39,30.325Z"/>
            </g>
          </g>
        </g>
      </g>
      <g id="Group_363" data-name="Group 363">
        <g id="Group_318" data-name="Group 318">
          <g id="Group_301" data-name="Group 301">
            <g id="Group_300" data-name="Group 300">
              <path id="Path_112" data-name="Path 112" class="cls-33" d="M331.081,46.075l-.024,1.775-.927-1.939Z"/>
            </g>
          </g>
          <g id="Group_303" data-name="Group 303">
            <g id="Group_302" data-name="Group 302">
              <path id="Path_113" data-name="Path 113" class="cls-33" d="M340.808,44.764l.63,1.659.207-2.139Z"/>
            </g>
          </g>
          <g id="Group_305" data-name="Group 305">
            <g id="Group_304" data-name="Group 304">
              <path id="Path_114" data-name="Path 114" class="cls-33" d="M341.344,48.573l-.717,1.623,1.65-1.377Z"/>
            </g>
          </g>
          <g id="Group_307" data-name="Group 307">
            <g id="Group_306" data-name="Group 306">
              <path id="Path_115" data-name="Path 115" class="cls-33" d="M332.043,50.528l1.411,1.076-2.11-.41Z"/>
            </g>
          </g>
          <g id="Group_309" data-name="Group 309">
            <g id="Group_308" data-name="Group 308">
              <path id="Path_116" data-name="Path 116" class="cls-34" d="M334.448,42.352l-.4-1.123,1.147.9Z"/>
            </g>
          </g>
          <g id="Group_311" data-name="Group 311">
            <g id="Group_310" data-name="Group 310">
              <path id="Path_117" data-name="Path 117" class="cls-34" d="M336.573,42.063l.178-1.268-.93,1.419Z"/>
            </g>
          </g>
          <g id="Group_313" data-name="Group 313">
            <g id="Group_312" data-name="Group 312">
              <path id="Path_118" data-name="Path 118" class="cls-33" d="M341.51,46.374a5.339,5.339,0,1,1-6.186-4.33A5.34,5.34,0,0,1,341.51,46.374Z"/>
            </g>
          </g>
          <g id="Group_315" data-name="Group 315">
            <g id="Group_314" data-name="Group 314">
              <path id="Path_119" data-name="Path 119" class="cls-35" d="M341.165,46.435a4.989,4.989,0,1,1-5.78-4.046A4.989,4.989,0,0,1,341.165,46.435Z"/>
            </g>
          </g>
          <g id="Group_317" data-name="Group 317">
            <g id="Group_316" data-name="Group 316">
              <path id="Path_120" data-name="Path 120" class="cls-36" d="M339.536,46a3.3,3.3,0,1,1-3.819-2.673A3.3,3.3,0,0,1,339.536,46Z"/>
            </g>
          </g>
        </g>
        <g id="Group_320" data-name="Group 320">
          <g id="Group_319" data-name="Group 319">
            <path id="Path_121" data-name="Path 121" class="cls-37" d="M335.9,44.08a.158.158,0,1,1-.183-.128A.158.158,0,0,1,335.9,44.08Z"/>
          </g>
        </g>
        <g id="Group_322" data-name="Group 322">
          <g id="Group_321" data-name="Group 321">
            <path id="Path_122" data-name="Path 122" class="cls-37" d="M334.885,45.4a.158.158,0,1,1-.183-.128A.159.159,0,0,1,334.885,45.4Z"/>
          </g>
        </g>
        <g id="Group_324" data-name="Group 324">
          <g id="Group_323" data-name="Group 323">
            <path id="Path_123" data-name="Path 123" class="cls-37" d="M337.538,44.972a.158.158,0,1,1-.183-.128A.158.158,0,0,1,337.538,44.972Z"/>
          </g>
        </g>
        <g id="Group_326" data-name="Group 326">
          <g id="Group_325" data-name="Group 325">
            <path id="Path_124" data-name="Path 124" class="cls-37" d="M336.263,46.525a.158.158,0,1,1-.183-.128A.158.158,0,0,1,336.263,46.525Z"/>
          </g>
        </g>
        <g id="Group_328" data-name="Group 328">
          <g id="Group_327" data-name="Group 327">
            <path id="Path_125" data-name="Path 125" class="cls-37" d="M334.243,46.992a.158.158,0,1,1-.183-.128A.158.158,0,0,1,334.243,46.992Z"/>
          </g>
        </g>
        <g id="Group_330" data-name="Group 330">
          <g id="Group_329" data-name="Group 329">
            <path id="Path_126" data-name="Path 126" class="cls-37" d="M338.5,46.462a.158.158,0,1,1-.183-.129A.159.159,0,0,1,338.5,46.462Z"/>
          </g>
        </g>
        <g id="Group_332" data-name="Group 332">
          <g id="Group_331" data-name="Group 331">
            <path id="Path_127" data-name="Path 127" class="cls-37" d="M336.709,48.217a.158.158,0,1,1-.183-.129A.157.157,0,0,1,336.709,48.217Z"/>
          </g>
        </g>
        <g id="Group_334" data-name="Group 334">
          <g id="Group_333" data-name="Group 333">
            <path id="Path_128" data-name="Path 128" class="cls-37" d="M334.965,48.783a.158.158,0,1,1-.183-.128A.157.157,0,0,1,334.965,48.783Z"/>
          </g>
        </g>
        <g id="Group_336" data-name="Group 336">
          <g id="Group_335" data-name="Group 335">
            <path id="Path_129" data-name="Path 129" class="cls-37" d="M338.639,48.282a.158.158,0,0,1-.311.055.158.158,0,1,1,.311-.055Z"/>
          </g>
        </g>
        <g id="Group_338" data-name="Group 338">
          <g id="Group_337" data-name="Group 337">
            <path id="Path_130" data-name="Path 130" class="cls-37" d="M337.031,50.041a.158.158,0,1,1-.183-.128A.158.158,0,0,1,337.031,50.041Z"/>
          </g>
        </g>
        <g id="Group_340" data-name="Group 340">
          <g id="Group_339" data-name="Group 339">
            <path id="Path_131" data-name="Path 131" class="cls-37" d="M334.856,50.462a.158.158,0,1,1-.183-.128A.158.158,0,0,1,334.856,50.462Z"/>
          </g>
        </g>
        <g id="Group_342" data-name="Group 342">
          <g id="Group_341" data-name="Group 341">
            <path id="Path_132" data-name="Path 132" class="cls-37" d="M339.268,49.757a.158.158,0,1,1-.183-.128A.157.157,0,0,1,339.268,49.757Z"/>
          </g>
        </g>
        <g id="Group_344" data-name="Group 344">
          <g id="Group_343" data-name="Group 343">
            <path id="Path_133" data-name="Path 133" class="cls-37" d="M340.187,47.234a.158.158,0,1,1-.183-.128A.158.158,0,0,1,340.187,47.234Z"/>
          </g>
        </g>
        <g id="Group_346" data-name="Group 346">
          <g id="Group_345" data-name="Group 345">
            <path id="Path_134" data-name="Path 134" class="cls-37" d="M332.713,48.147a.158.158,0,1,1-.183-.128A.158.158,0,0,1,332.713,48.147Z"/>
          </g>
        </g>
        <g id="Group_348" data-name="Group 348">
          <g id="Group_347" data-name="Group 347">
            <path id="Path_135" data-name="Path 135" class="cls-37" d="M332.9,45.679a.158.158,0,1,1-.183-.128A.159.159,0,0,1,332.9,45.679Z"/>
          </g>
        </g>
        <g id="Group_350" data-name="Group 350">
          <g id="Group_349" data-name="Group 349">
            <path id="Path_136" data-name="Path 136" class="cls-37" d="M339.438,45.079a.158.158,0,1,1-.183-.128A.158.158,0,0,1,339.438,45.079Z"/>
          </g>
        </g>
        <g id="Group_352" data-name="Group 352">
          <g id="Group_351" data-name="Group 351">
            <path id="Path_137" data-name="Path 137" class="cls-37" d="M338.146,43.61a.158.158,0,1,1-.183-.128A.158.158,0,0,1,338.146,43.61Z"/>
          </g>
        </g>
        <g id="Group_354" data-name="Group 354">
          <g id="Group_353" data-name="Group 353">
            <path id="Path_138" data-name="Path 138" class="cls-37" d="M333.816,44.154a.158.158,0,0,1-.311.055.158.158,0,0,1,.311-.055Z"/>
          </g>
        </g>
        <g id="Group_356" data-name="Group 356">
          <g id="Group_355" data-name="Group 355">
            <path id="Path_139" data-name="Path 139" class="cls-37" d="M335.739,42.929a.158.158,0,1,1-.183-.128A.158.158,0,0,1,335.739,42.929Z"/>
          </g>
        </g>
        <g id="Group_358" data-name="Group 358">
          <g id="Group_357" data-name="Group 357">
            <path id="Path_140" data-name="Path 140" class="cls-37" d="M337.118,51.575a.158.158,0,1,1-.183-.128A.159.159,0,0,1,337.118,51.575Z"/>
          </g>
        </g>
        <g id="Group_360" data-name="Group 360">
          <g id="Group_359" data-name="Group 359">
            <path id="Path_141" data-name="Path 141" class="cls-37" d="M333.052,49.858a.158.158,0,1,1-.183-.128A.158.158,0,0,1,333.052,49.858Z"/>
          </g>
        </g>
        <g id="Group_362" data-name="Group 362">
          <g id="Group_361" data-name="Group 361">
            <path id="Path_142" data-name="Path 142" class="cls-37" d="M340.589,48.675a.158.158,0,1,1-.183-.128A.158.158,0,0,1,340.589,48.675Z"/>
          </g>
        </g>
      </g>
      <g id="Group_365" data-name="Group 365">
        <g id="Group_364" data-name="Group 364">
          <path id="Path_143" data-name="Path 143" class="cls-3" d="M386.378,56.143l6.058-4.724.022-.08a280.953,280.953,0,0,0-78.646-1.51l6,5.054L316.78,61.8a259.209,259.209,0,0,1,72.378,1.407Z"/>
        </g>
      </g>
      <g id="Group_370" data-name="Group 370">
        <g id="Group_367" data-name="Group 367">
          <g id="Group_366" data-name="Group 366">
            <path id="Path_144" data-name="Path 144" class="cls-36" d="M315.726,51.441a276.51,276.51,0,0,1,74.826,1.447l.356-.278a277.123,277.123,0,0,0-75.528-1.46Z"/>
          </g>
        </g>
        <g id="Group_369" data-name="Group 369">
          <g id="Group_368" data-name="Group 368">
            <path id="Path_145" data-name="Path 145" class="cls-36" d="M388.359,61.178a261.448,261.448,0,0,0-70.7-1.377l-.153.351a260.826,260.826,0,0,1,71,1.381Z"/>
          </g>
        </g>
      </g>
      <g id="Group_371" data-name="Group 371">
        <path id="Path_146" data-name="Path 146" class="cls-36" d="M329.979,56.514l.13-5.255,2.922.072-.014.582-1.752-.044-.043,1.752,1.17.029-.015.589-1.17-.029-.058,2.333Z"/>
        <path id="Path_147" data-name="Path 147" class="cls-36" d="M334.064,56.616l.13-5.256,2.341.058a1.109,1.109,0,0,1,.811.367,1.131,1.131,0,0,1,.323.832l-.007.315a1.258,1.258,0,0,1-.285.747,1.042,1.042,0,0,1-.906.338l.581.015a.558.558,0,0,1,.406.182.565.565,0,0,1,.162.421l-.052,2.067-1.163-.029.043-1.752a.563.563,0,0,0-.161-.414.569.569,0,0,0-.413-.182l-.581-.014-.058,2.333Zm1.243-2.894.582.015a.567.567,0,0,0,.421-.162.561.561,0,0,0,.182-.406l.014-.581a.586.586,0,0,0-.574-.6l-.582-.015Z"/>
        <path id="Path_148" data-name="Path 148" class="cls-36" d="M341.209,51.533l1.164.029-.1,4.085a1.128,1.128,0,0,1-.363.815,1.113,1.113,0,0,1-.829.327l-1.17-.029a1.131,1.131,0,0,1-.815-.364,1.118,1.118,0,0,1-.326-.835l.1-4.086,1.17.029-.1,4.086a.57.57,0,0,0,.161.417.555.555,0,0,0,.406.186.562.562,0,0,0,.421-.165.568.568,0,0,0,.182-.409Z"/>
        <path id="Path_149" data-name="Path 149" class="cls-36" d="M344,56.861l.13-5.256,1.164.029-.13,5.256Z"/>
        <path id="Path_150" data-name="Path 150" class="cls-36" d="M347.505,56.948l.116-4.674-1.17-.029.014-.582,3.5.087-.014.581-1.171-.029-.115,4.675Z"/>
        <path id="Path_151" data-name="Path 151" class="cls-36" d="M352.173,57.063l.13-5.256.273.007,2.433,2.55,2.55-2.427.588.015-.13,5.256-1.17-.029.079-3.21-2.1,2-1.988-2.1-.08,3.21Z"/>
        <path id="Path_152" data-name="Path 152" class="cls-36" d="M359.18,57.237l.1-4.086a1.18,1.18,0,0,1,1.2-1.141l1.17.029a1.109,1.109,0,0,1,.811.367,1.131,1.131,0,0,1,.323.832l-.1,4.085-1.163-.029.058-2.333-1.17-.029-.058,2.333Zm1.243-2.894,1.17.029.029-1.163a.586.586,0,0,0-.574-.6.585.585,0,0,0-.6.574Z"/>
        <path id="Path_153" data-name="Path 153" class="cls-36" d="M363.855,57.352l.13-5.256.273.007,3.158,3,.073-2.922.588.014-.13,5.256-.266-.006-3.165-3-.073,2.923Z"/>
        <path id="Path_154" data-name="Path 154" class="cls-36" d="M369.7,57.5l.13-5.256,1.163.029-.13,5.255Z"/>
        <path id="Path_155" data-name="Path 155" class="cls-36" d="M372.614,57.569l.1-4.086a1.18,1.18,0,0,1,1.2-1.141l1.17.029a1.112,1.112,0,0,1,.811.367,1.131,1.131,0,0,1,.323.832l-.1,4.085-1.163-.028.058-2.334-1.171-.029-.057,2.334Zm1.243-2.894,1.17.029.029-1.163a.586.586,0,0,0-.574-.6.56.56,0,0,0-.414.161.567.567,0,0,0-.182.413Z"/>
      </g>
      <g id="Group_372" data-name="Group 372">
        <path id="Path_156" data-name="Path 156" class="cls-3" d="M394.561,51.2h3.279l3.241,4.77L404.3,51.2h3.279V63.627h-3.968V59.155l-2.534,3.727-2.552-3.727v4.472h-3.968Zm2.347,10.936V53.585l4.173,6.073,4.155-6.073v8.551h.484V52.691h-.484l-4.155,6.129-4.173-6.129h-.484v9.445Z"/>
        <path id="Path_157" data-name="Path 157" class="cls-3" d="M412.576,51.2h2.981l4.713,12.427h-3.912l-.41-1.118h-3.763l-.41,1.118h-3.912Zm-1.937,10.936.354-.931h6.148l.354.931h.521l-3.6-9.445h-.708l-3.6,9.445Zm3.428-9,2.906,7.62H411.16Zm.838,6.632-.838-2.18-.839,2.18Z"/>
        <path id="Path_158" data-name="Path 158" class="cls-3" d="M420.55,51.2h3.26l3.428,4.788V51.2h3.894V63.627h-3.279l-3.409-4.77v4.77H420.55Zm2.217,10.936V53.529l6.148,8.607h.484V52.691h-.484V61.3l-6.148-8.607h-.485v9.445Z"/>
        <path id="Path_159" data-name="Path 159" class="cls-3" d="M432.436,51.2h4.21V63.627h-4.21Zm2.347,10.936V52.691H434.3v9.445Z"/>
        <path id="Path_160" data-name="Path 160" class="cls-3" d="M441.639,51.2h2.981l4.713,12.427h-3.912l-.41-1.118h-3.763l-.41,1.118h-3.912ZM439.7,62.136l.354-.931H446.2l.354.931h.522l-3.6-9.445h-.708l-3.6,9.445Zm3.428-9,2.907,7.62h-5.813Zm.839,6.632-.839-2.18-.838,2.18Z"/>
      </g>
    </g>
  </g>
</svg>
